<svg width="1200" height="800" viewBox="0 0 1200 800" fill="none" xmlns="http://www.w3.org/2000/svg">
  <!-- Top Navigation -->
  <rect x="0" y="0" width="1200" height="50" fill="#DDDDDD"/>
  <rect x="20" y="14" width="120" height="22" rx="0" fill="#9CA3AF"/>
  <rect x="1060" y="12" width="120" height="26" rx="0" fill="#9CA3AF"/>

  <!-- Left Sidebar -->
  <rect x="0" y="50" width="200" height="750" fill="#EEEEEE"/>
  <rect x="16" y="70" width="168" height="32" rx="0" fill="white"/>
  <rect x="16" y="114" width="168" height="28" rx="0" fill="#9CA3AF"/>
  <rect x="16" y="150" width="168" height="28" rx="0" fill="white"/>
  <rect x="16" y="186" width="168" height="28" rx="0" fill="white"/>

  <!-- Title -->
  <rect x="240" y="66" width="200" height="24" rx="0" fill="#9CA3AF"/>

  <!-- Card Carousel -->
  <rect x="240" y="110" width="280" height="170" rx="0" fill="#9CA3AF"/>
  <rect x="260" y="130" width="100" height="14" rx="0" fill="white" fill-opacity="0.5"/>
  <rect x="260" y="200" width="200" height="18" rx="0" fill="white" fill-opacity="0.5"/>
  <rect x="260" y="234" width="100" height="14" rx="0" fill="white" fill-opacity="0.5"/>
  <rect x="200" y="234" width="14" height="14" rx="0" fill="white" fill-opacity="0.5"/>

  <rect x="540" y="110" width="280" height="170" rx="0" fill="#DDDDDD"/>
  <rect x="560" y="130" width="100" height="14" rx="0" fill="#9CA3AF"/>
  <rect x="560" y="200" width="200" height="18" rx="0" fill="#9CA3AF"/>
  <rect x="560" y="234" width="100" height="14" rx="0" fill="#9CA3AF"/>

  <rect x="840" y="110" width="280" height="170" rx="0" fill="#EEEEEE" stroke="#CCCCCC"/>
  <rect x="860" y="130" width="100" height="14" rx="0" fill="#CCCCCC"/>
  <rect x="860" y="200" width="200" height="18" rx="0" fill="#CCCCCC"/>
  <rect x="860" y="234" width="100" height="14" rx="0" fill="#CCCCCC"/>

  <!-- Card Actions -->
  <rect x="240" y="300" width="140" height="36" rx="0" fill="#9CA3AF"/>
  <rect x="396" y="300" width="140" height="36" rx="0" fill="white" stroke="#CCCCCC"/>
  <rect x="552" y="300" width="140" height="36" rx="0" fill="white" stroke="#CCCCCC"/>
  <rect x="708" y="300" width="140" height="36" rx="0" fill="white" stroke="#CCCCCC"/>

  <!-- Transaction History -->
  <rect x="240" y="360" width="932" height="420" rx="0" fill="white" stroke="#CCCCCC"/>
  <rect x="260" y="380" width="200" height="20" rx="0" fill="#9CA3AF"/>
  <rect x="980" y="376" width="172" height="28" rx="0" fill="white" stroke="#CCCCCC"/>

  <rect x="260" y="416" width="892" height="28" rx="0" fill="#EEEEEE"/>
  <rect x="270" y="422" width="60" height="16" rx="0" fill="#CCCCCC"/>
  <rect x="420" y="422" width="140" height="16" rx="0" fill="#CCCCCC"/>
  <rect x="660" y="422" width="100" height="16" rx="0" fill="#CCCCCC"/>
  <rect x="860" y="422" width="80" height="16" rx="0" fill="#CCCCCC"/>
  <rect x="1040" y="422" width="80" height="16" rx="0" fill="#CCCCCC"/>

  <rect x="260" y="452" width="892" height="28" rx="0" fill="white"/>
  <rect x="270" y="458" width="60" height="16" rx="0" fill="#CCCCCC"/>
  <rect x="420" y="458" width="160" height="16" rx="0" fill="#CCCCCC"/>
  <rect x="660" y="458" width="80" height="16" rx="0" fill="#CCCCCC"/>
  <rect x="860" y="458" width="60" height="16" rx="0" fill="#9CA3AF"/>
  <rect x="1040" y="458" width="60" height="16" rx="0" fill="#CCCCCC"/>

  <rect x="260" y="488" width="892" height="28" rx="0" fill="#EEEEEE"/>
  <rect x="270" y="494" width="60" height="16" rx="0" fill="#CCCCCC"/>
  <rect x="420" y="494" width="120" height="16" rx="0" fill="#CCCCCC"/>
  <rect x="660" y="494" width="100" height="16" rx="0" fill="#CCCCCC"/>
  <rect x="860" y="494" width="60" height="16" rx="0" fill="#9CA3AF"/>
  <rect x="1040" y="494" width="60" height="16" rx="0" fill="#CCCCCC"/>

  <rect x="260" y="524" width="892" height="28" rx="0" fill="white"/>
  <rect x="270" y="530" width="60" height="16" rx="0" fill="#CCCCCC"/>
  <rect x="420" y="530" width="140" height="16" rx="0" fill="#CCCCCC"/>
  <rect x="660" y="530" width="80" height="16" rx="0" fill="#CCCCCC"/>
  <rect x="860" y="530" width="60" height="16" rx="0" fill="#9CA3AF"/>
  <rect x="1040" y="530" width="60" height="16" rx="0" fill="#CCCCCC"/>

  <rect x="260" y="560" width="892" height="28" rx="0" fill="#EEEEEE"/>
  <rect x="270" y="566" width="60" height="16" rx="0" fill="#CCCCCC"/>
  <rect x="420" y="566" width="100" height="16" rx="0" fill="#CCCCCC"/>
  <rect x="660" y="566" width="100" height="16" rx="0" fill="#CCCCCC"/>
  <rect x="860" y="566" width="60" height="16" rx="0" fill="#9CA3AF"/>
  <rect x="1040" y="566" width="60" height="16" rx="0" fill="#CCCCCC"/>

  <rect x="260" y="596" width="892" height="28" rx="0" fill="white"/>
  <rect x="270" y="602" width="60" height="16" rx="0" fill="#CCCCCC"/>
  <rect x="420" y="602" width="130" height="16" rx="0" fill="#CCCCCC"/>
  <rect x="660" y="602" width="80" height="16" rx="0" fill="#CCCCCC"/>
  <rect x="860" y="602" width="60" height="16" rx="0" fill="#9CA3AF"/>
  <rect x="1040" y="602" width="60" height="16" rx="0" fill="#CCCCCC"/>
</svg>
