<svg width="1200" height="800" viewBox="0 0 1200 800" fill="none" xmlns="http://www.w3.org/2000/svg">
  <!-- Top Bar - Minimal -->
  <rect x="0" y="0" width="1200" height="50" fill="#DDDDDD"/>
  <rect x="20" y="13" width="120" height="24" rx="10" fill="#9CA3AF"/>
  <rect x="560" y="14" width="80" height="22" rx="8" fill="#9CA3AF"/>
  <rect x="1020" y="10" width="80" height="30" rx="10" fill="#9CA3AF"/>
  <rect x="1110" y="10" width="60" height="30" rx="10" fill="#9CA3AF"/>

  <!-- Main Video / Presentation Area -->
  <rect x="20" y="64" width="800" height="460" rx="12" fill="#EEEEEE"/>
  <rect x="370" y="264" width="80" height="60" rx="30" fill="#9CA3AF"/>

  <!-- Video Controls Bar -->
  <rect x="20" y="524" width="800" height="44" rx="0" fill="#DDDDDD"/>
  <rect x="40" y="536" width="30" height="20" rx="6" fill="#9CA3AF"/>
  <rect x="90" y="544" width="600" height="6" rx="3" fill="#CCCCCC"/>
  <rect x="90" y="544" width="240" height="6" rx="3" fill="#9CA3AF"/>
  <rect x="750" y="536" width="50" height="20" rx="6" fill="#9CA3AF"/>

  <!-- Right Panel - Participants -->
  <rect x="840" y="64" width="340" height="240" rx="12" fill="white" stroke="#CCCCCC"/>
  <rect x="860" y="80" width="120" height="18" rx="8" fill="#9CA3AF"/>

  <rect x="860" y="112" width="300" height="40" rx="8" fill="#EEEEEE"/>
  <rect x="876" y="122" width="28" height="28" rx="14" fill="#DDDDDD"/>
  <rect x="914" y="126" width="120" height="14" rx="6" fill="#CCCCCC"/>
  <rect x="1120" y="124" width="16" height="16" rx="4" fill="#9CA3AF"/>

  <rect x="860" y="160" width="300" height="40" rx="8" fill="#EEEEEE"/>
  <rect x="876" y="170" width="28" height="28" rx="14" fill="#DDDDDD"/>
  <rect x="914" y="174" width="100" height="14" rx="6" fill="#CCCCCC"/>
  <rect x="1120" y="172" width="16" height="16" rx="4" fill="#9CA3AF"/>

  <rect x="860" y="208" width="300" height="40" rx="8" fill="#EEEEEE"/>
  <rect x="876" y="218" width="28" height="28" rx="14" fill="#DDDDDD"/>
  <rect x="914" y="222" width="140" height="14" rx="6" fill="#CCCCCC"/>

  <rect x="860" y="256" width="300" height="40" rx="8" fill="#EEEEEE"/>
  <rect x="876" y="266" width="28" height="28" rx="14" fill="#DDDDDD"/>
  <rect x="914" y="270" width="110" height="14" rx="6" fill="#CCCCCC"/>

  <!-- Right Panel - Chat -->
  <rect x="840" y="318" width="340" height="290" rx="12" fill="white" stroke="#CCCCCC"/>
  <rect x="860" y="334" width="60" height="18" rx="8" fill="#9CA3AF"/>

  <rect x="860" y="366" width="200" height="30" rx="8" fill="#EEEEEE"/>
  <rect x="876" y="374" width="160" height="14" rx="6" fill="#CCCCCC"/>

  <rect x="980" y="406" width="180" height="30" rx="8" fill="#DDDDDD"/>
  <rect x="996" y="414" width="140" height="14" rx="6" fill="#CCCCCC"/>

  <rect x="860" y="446" width="220" height="30" rx="8" fill="#EEEEEE"/>
  <rect x="876" y="454" width="180" height="14" rx="6" fill="#CCCCCC"/>

  <rect x="960" y="486" width="200" height="30" rx="8" fill="#DDDDDD"/>
  <rect x="976" y="494" width="160" height="14" rx="6" fill="#CCCCCC"/>

  <!-- Chat Input -->
  <rect x="860" y="564" width="260" height="30" rx="8" fill="white" stroke="#CCCCCC"/>
  <rect x="1130" y="564" width="30" height="30" rx="8" fill="#9CA3AF"/>

  <!-- Bottom Toolbar -->
  <rect x="20" y="586" width="800" height="60" rx="12" fill="white" stroke="#CCCCCC"/>
  <rect x="260" y="600" width="40" height="32" rx="8" fill="#EEEEEE"/>
  <rect x="320" y="600" width="40" height="32" rx="8" fill="#EEEEEE"/>
  <rect x="380" y="600" width="40" height="32" rx="8" fill="#9CA3AF"/>
  <rect x="440" y="600" width="40" height="32" rx="8" fill="#EEEEEE"/>
  <rect x="500" y="600" width="40" height="32" rx="8" fill="#EEEEEE"/>

  <!-- Shared Resources Panel -->
  <rect x="20" y="660" width="1160" height="120" rx="12" fill="white" stroke="#CCCCCC"/>
  <rect x="40" y="676" width="140" height="18" rx="8" fill="#9CA3AF"/>
  <rect x="40" y="706" width="160" height="50" rx="8" fill="#EEEEEE"/>
  <rect x="220" y="706" width="160" height="50" rx="8" fill="#EEEEEE"/>
  <rect x="400" y="706" width="160" height="50" rx="8" fill="#EEEEEE"/>
  <rect x="580" y="706" width="160" height="50" rx="8" fill="#EEEEEE"/>
</svg>
