<svg width="1200" height="800" viewBox="0 0 1200 800" fill="none" xmlns="http://www.w3.org/2000/svg">
  <!-- Top Navigation Bar -->
  <rect x="0" y="0" width="1200" height="56" fill="#DDDDDD"/>
  <rect x="24" y="16" width="100" height="24" rx="4" fill="#9CA3AF"/>
  <rect x="900" y="16" width="60" height="24" rx="4" fill="#CCCCCC"/>
  <rect x="980" y="16" width="60" height="24" rx="4" fill="#CCCCCC"/>
  <rect x="1060" y="16" width="100" height="24" rx="4" fill="#9CA3AF"/>

  <!-- Search Bar Section -->
  <rect x="0" y="56" width="1200" height="120" fill="#EEEEEE"/>
  <!-- Destination Input -->
  <rect x="40" y="80" width="240" height="48" rx="8" fill="white" stroke="#CCCCCC"/>
  <rect x="56" y="72" width="70" height="12" rx="2" fill="#EEEEEE"/>
  <rect x="60" y="98" width="140" height="12" rx="4" fill="#CCCCCC"/>
  <!-- Check-in Date -->
  <rect x="300" y="80" width="180" height="48" rx="8" fill="white" stroke="#CCCCCC"/>
  <rect x="316" y="72" width="55" height="12" rx="2" fill="#EEEEEE"/>
  <rect x="320" y="98" width="100" height="12" rx="4" fill="#CCCCCC"/>
  <!-- Check-out Date -->
  <rect x="500" y="80" width="180" height="48" rx="8" fill="white" stroke="#CCCCCC"/>
  <rect x="516" y="72" width="60" height="12" rx="2" fill="#EEEEEE"/>
  <rect x="520" y="98" width="100" height="12" rx="4" fill="#CCCCCC"/>
  <!-- Travelers -->
  <rect x="700" y="80" width="160" height="48" rx="8" fill="white" stroke="#CCCCCC"/>
  <rect x="716" y="72" width="55" height="12" rx="2" fill="#EEEEEE"/>
  <rect x="720" y="98" width="80" height="12" rx="4" fill="#CCCCCC"/>
  <!-- Search Button -->
  <rect x="900" y="80" width="260" height="48" rx="8" fill="#9CA3AF"/>

  <!-- Filter Sidebar -->
  <rect x="0" y="176" width="260" height="624" fill="white" stroke="#CCCCCC"/>
  <!-- Price Range Filter -->
  <rect x="20" y="196" width="100" height="16" rx="4" fill="#9CA3AF"/>
  <rect x="20" y="224" width="220" height="8" rx="4" fill="#EEEEEE"/>
  <circle cx="80" cy="228" r="8" fill="#9CA3AF"/>
  <circle cx="180" cy="228" r="8" fill="#9CA3AF"/>
  <!-- Star Rating Filter -->
  <rect x="20" y="264" width="80" height="16" rx="4" fill="#9CA3AF"/>
  <rect x="20" y="292" width="16" height="16" rx="2" fill="#EEEEEE" stroke="#CCCCCC"/>
  <rect x="44" y="294" width="60" height="12" rx="4" fill="#CCCCCC"/>
  <rect x="20" y="318" width="16" height="16" rx="2" fill="#EEEEEE" stroke="#CCCCCC"/>
  <rect x="44" y="320" width="60" height="12" rx="4" fill="#CCCCCC"/>
  <rect x="20" y="344" width="16" height="16" rx="2" fill="#EEEEEE" stroke="#CCCCCC"/>
  <rect x="44" y="346" width="60" height="12" rx="4" fill="#CCCCCC"/>
  <rect x="20" y="370" width="16" height="16" rx="2" fill="#EEEEEE" stroke="#CCCCCC"/>
  <rect x="44" y="372" width="60" height="12" rx="4" fill="#CCCCCC"/>
  <!-- Amenities Filter -->
  <rect x="20" y="416" width="80" height="16" rx="4" fill="#9CA3AF"/>
  <rect x="20" y="444" width="16" height="16" rx="2" fill="#EEEEEE" stroke="#CCCCCC"/>
  <rect x="44" y="446" width="80" height="12" rx="4" fill="#CCCCCC"/>
  <rect x="20" y="470" width="16" height="16" rx="2" fill="#EEEEEE" stroke="#CCCCCC"/>
  <rect x="44" y="472" width="70" height="12" rx="4" fill="#CCCCCC"/>
  <rect x="20" y="496" width="16" height="16" rx="2" fill="#EEEEEE" stroke="#CCCCCC"/>
  <rect x="44" y="498" width="90" height="12" rx="4" fill="#CCCCCC"/>
  <rect x="20" y="522" width="16" height="16" rx="2" fill="#EEEEEE" stroke="#CCCCCC"/>
  <rect x="44" y="524" width="60" height="12" rx="4" fill="#CCCCCC"/>

  <!-- Sort Bar -->
  <rect x="280" y="186" width="900" height="36" fill="#EEEEEE" rx="4"/>
  <rect x="296" y="196" width="80" height="14" rx="4" fill="#CCCCCC"/>
  <rect x="1040" y="194" width="120" height="20" rx="4" fill="white" stroke="#CCCCCC"/>

  <!-- Result Card 1 -->
  <rect x="280" y="236" width="900" height="150" rx="8" fill="white" stroke="#CCCCCC"/>
  <rect x="296" y="252" width="200" height="118" rx="6" fill="#EEEEEE"/>
  <rect x="516" y="256" width="200" height="18" rx="4" fill="#9CA3AF"/>
  <rect x="516" y="284" width="300" height="12" rx="4" fill="#CCCCCC"/>
  <rect x="516" y="304" width="260" height="12" rx="4" fill="#CCCCCC"/>
  <!-- Star Rating -->
  <rect x="516" y="330" width="80" height="14" rx="4" fill="#9CA3AF"/>
  <rect x="610" y="330" width="60" height="14" rx="4" fill="#CCCCCC"/>
  <!-- Price + CTA -->
  <rect x="1040" y="260" width="120" height="24" rx="4" fill="#9CA3AF"/>
  <rect x="1040" y="294" width="60" height="12" rx="4" fill="#CCCCCC"/>
  <rect x="1040" y="336" width="120" height="36" rx="6" fill="#9CA3AF"/>

  <!-- Result Card 2 -->
  <rect x="280" y="400" width="900" height="150" rx="8" fill="white" stroke="#CCCCCC"/>
  <rect x="296" y="416" width="200" height="118" rx="6" fill="#EEEEEE"/>
  <rect x="516" y="420" width="180" height="18" rx="4" fill="#9CA3AF"/>
  <rect x="516" y="448" width="280" height="12" rx="4" fill="#CCCCCC"/>
  <rect x="516" y="468" width="240" height="12" rx="4" fill="#CCCCCC"/>
  <rect x="516" y="494" width="80" height="14" rx="4" fill="#9CA3AF"/>
  <rect x="610" y="494" width="60" height="14" rx="4" fill="#CCCCCC"/>
  <rect x="1040" y="424" width="120" height="24" rx="4" fill="#9CA3AF"/>
  <rect x="1040" y="458" width="60" height="12" rx="4" fill="#CCCCCC"/>
  <rect x="1040" y="500" width="120" height="36" rx="6" fill="#9CA3AF"/>

  <!-- Result Card 3 -->
  <rect x="280" y="564" width="900" height="150" rx="8" fill="white" stroke="#CCCCCC"/>
  <rect x="296" y="580" width="200" height="118" rx="6" fill="#EEEEEE"/>
  <rect x="516" y="584" width="220" height="18" rx="4" fill="#9CA3AF"/>
  <rect x="516" y="612" width="320" height="12" rx="4" fill="#CCCCCC"/>
  <rect x="516" y="632" width="270" height="12" rx="4" fill="#CCCCCC"/>
  <rect x="516" y="658" width="80" height="14" rx="4" fill="#9CA3AF"/>
  <rect x="610" y="658" width="60" height="14" rx="4" fill="#CCCCCC"/>
  <rect x="1040" y="588" width="120" height="24" rx="4" fill="#9CA3AF"/>
  <rect x="1040" y="622" width="60" height="12" rx="4" fill="#CCCCCC"/>
  <rect x="1040" y="664" width="120" height="36" rx="6" fill="#9CA3AF"/>

  <!-- Pagination -->
  <rect x="640" y="740" width="200" height="36" rx="6" fill="#EEEEEE"/>
  <circle cx="680" cy="758" r="14" fill="white" stroke="#CCCCCC"/>
  <circle cx="720" cy="758" r="14" fill="#9CA3AF"/>
  <circle cx="760" cy="758" r="14" fill="white" stroke="#CCCCCC"/>
  <circle cx="800" cy="758" r="14" fill="white" stroke="#CCCCCC"/>
</svg>
