<svg width="1200" height="800" viewBox="0 0 1200 800" fill="none" xmlns="http://www.w3.org/2000/svg">
  <!-- Top Navigation -->
  <rect x="0" y="0" width="1200" height="60" fill="#DDDDDD"/>
  <rect x="40" y="18" width="140" height="24" rx="10" fill="#9CA3AF"/>
  <rect x="500" y="20" width="80" height="20" rx="8" fill="#9CA3AF"/>
  <rect x="600" y="20" width="80" height="20" rx="8" fill="#9CA3AF"/>
  <rect x="700" y="20" width="80" height="20" rx="8" fill="#9CA3AF"/>
  <rect x="1020" y="12" width="140" height="36" rx="10" fill="#9CA3AF"/>

  <!-- Hero with Search -->
  <rect x="0" y="60" width="1200" height="340" fill="#EEEEEE"/>
  <rect x="200" y="120" width="800" height="44" rx="10" fill="#9CA3AF"/>
  <rect x="200" y="180" width="600" height="16" rx="8" fill="#CCCCCC"/>
  <rect x="200" y="210" width="500" height="16" rx="8" fill="#CCCCCC"/>

  <!-- Search Box -->
  <rect x="200" y="260" width="800" height="60" rx="12" fill="white" stroke="#CCCCCC"/>
  <rect x="220" y="274" width="200" height="32" rx="8" fill="#EEEEEE"/>
  <rect x="440" y="274" width="160" height="32" rx="8" fill="#EEEEEE"/>
  <rect x="620" y="274" width="160" height="32" rx="8" fill="#EEEEEE"/>
  <rect x="860" y="274" width="120" height="32" rx="10" fill="#9CA3AF"/>

  <!-- Featured Listings -->
  <rect x="40" y="424" width="200" height="24" rx="8" fill="#9CA3AF"/>

  <rect x="40" y="466" width="370" height="240" rx="12" fill="white" stroke="#CCCCCC"/>
  <rect x="40" y="466" width="370" height="140" rx="12" fill="#EEEEEE"/>
  <rect x="56" y="622" width="240" height="18" rx="8" fill="#9CA3AF"/>
  <rect x="56" y="648" width="180" height="14" rx="8" fill="#CCCCCC"/>
  <rect x="56" y="676" width="100" height="20" rx="8" fill="#9CA3AF"/>

  <rect x="430" y="466" width="340" height="240" rx="12" fill="white" stroke="#CCCCCC"/>
  <rect x="430" y="466" width="340" height="140" rx="12" fill="#EEEEEE"/>
  <rect x="446" y="622" width="200" height="18" rx="8" fill="#9CA3AF"/>
  <rect x="446" y="648" width="160" height="14" rx="8" fill="#CCCCCC"/>
  <rect x="446" y="676" width="100" height="20" rx="8" fill="#9CA3AF"/>

  <rect x="790" y="466" width="370" height="240" rx="12" fill="white" stroke="#CCCCCC"/>
  <rect x="790" y="466" width="370" height="140" rx="12" fill="#EEEEEE"/>
  <rect x="806" y="622" width="220" height="18" rx="8" fill="#9CA3AF"/>
  <rect x="806" y="648" width="200" height="14" rx="8" fill="#CCCCCC"/>
  <rect x="806" y="676" width="100" height="20" rx="8" fill="#9CA3AF"/>

  <!-- Footer -->
  <rect x="0" y="730" width="1200" height="70" fill="#DDDDDD"/>
</svg>
