<svg width="1200" height="800" viewBox="0 0 1200 800" fill="none" xmlns="http://www.w3.org/2000/svg">
  <!-- Top Navigation -->
  <rect x="0" y="0" width="1200" height="56" fill="#DDDDDD"/>
  <rect x="40" y="16" width="120" height="24" rx="10" fill="#9CA3AF"/>
  <rect x="400" y="14" width="300" height="28" rx="14" fill="#EEEEEE"/>
  <rect x="1020" y="12" width="140" height="32" rx="10" fill="#9CA3AF"/>

  <!-- Category Tabs -->
  <rect x="0" y="56" width="1200" height="44" fill="white" stroke="#CCCCCC"/>
  <rect x="40" y="66" width="80" height="24" rx="8" fill="#DDDDDD"/>
  <rect x="136" y="66" width="100" height="24" rx="8" fill="#EEEEEE"/>
  <rect x="252" y="66" width="80" height="24" rx="8" fill="#EEEEEE"/>
  <rect x="348" y="66" width="100" height="24" rx="8" fill="#EEEEEE"/>
  <rect x="464" y="66" width="80" height="24" rx="8" fill="#EEEEEE"/>

  <!-- Left Sidebar -->
  <rect x="0" y="100" width="220" height="700" fill="white" stroke="#CCCCCC"/>
  <rect x="16" y="116" width="140" height="16" rx="6" fill="#9CA3AF"/>
  <rect x="16" y="146" width="188" height="30" rx="8" fill="#EEEEEE"/>
  <rect x="16" y="186" width="188" height="30" rx="8" fill="#EEEEEE"/>
  <rect x="16" y="226" width="188" height="30" rx="8" fill="#EEEEEE"/>
  <rect x="16" y="266" width="188" height="30" rx="8" fill="#EEEEEE"/>
  <rect x="16" y="316" width="100" height="16" rx="6" fill="#9CA3AF"/>
  <rect x="16" y="346" width="188" height="30" rx="8" fill="#EEEEEE"/>
  <rect x="16" y="386" width="188" height="30" rx="8" fill="#EEEEEE"/>

  <!-- Thread List -->
  <rect x="240" y="110" width="640" height="80" rx="10" fill="white" stroke="#CCCCCC"/>
  <rect x="264" y="124" width="400" height="18" rx="8" fill="#9CA3AF"/>
  <rect x="264" y="150" width="560" height="14" rx="8" fill="#CCCCCC"/>
  <rect x="264" y="172" width="100" height="12" rx="6" fill="#CCCCCC"/>
  <rect x="384" y="172" width="80" height="12" rx="6" fill="#CCCCCC"/>
  <rect x="824" y="130" width="40" height="20" rx="8" fill="#EEEEEE"/>

  <rect x="240" y="200" width="640" height="80" rx="10" fill="white" stroke="#CCCCCC"/>
  <rect x="264" y="214" width="360" height="18" rx="8" fill="#9CA3AF"/>
  <rect x="264" y="240" width="500" height="14" rx="8" fill="#CCCCCC"/>
  <rect x="264" y="262" width="80" height="12" rx="6" fill="#CCCCCC"/>
  <rect x="364" y="262" width="100" height="12" rx="6" fill="#CCCCCC"/>
  <rect x="824" y="220" width="40" height="20" rx="8" fill="#EEEEEE"/>

  <rect x="240" y="290" width="640" height="80" rx="10" fill="#EEEEEE" stroke="#CCCCCC"/>
  <rect x="264" y="304" width="420" height="18" rx="8" fill="#9CA3AF"/>
  <rect x="264" y="330" width="540" height="14" rx="8" fill="#CCCCCC"/>
  <rect x="264" y="352" width="100" height="12" rx="6" fill="#CCCCCC"/>
  <rect x="384" y="352" width="60" height="12" rx="6" fill="#CCCCCC"/>
  <rect x="824" y="310" width="40" height="20" rx="8" fill="#9CA3AF"/>

  <rect x="240" y="380" width="640" height="80" rx="10" fill="white" stroke="#CCCCCC"/>
  <rect x="264" y="394" width="380" height="18" rx="8" fill="#9CA3AF"/>
  <rect x="264" y="420" width="480" height="14" rx="8" fill="#CCCCCC"/>
  <rect x="264" y="442" width="120" height="12" rx="6" fill="#CCCCCC"/>
  <rect x="824" y="400" width="40" height="20" rx="8" fill="#EEEEEE"/>

  <rect x="240" y="470" width="640" height="80" rx="10" fill="white" stroke="#CCCCCC"/>
  <rect x="264" y="484" width="340" height="18" rx="8" fill="#9CA3AF"/>
  <rect x="264" y="510" width="520" height="14" rx="8" fill="#CCCCCC"/>
  <rect x="264" y="532" width="80" height="12" rx="6" fill="#CCCCCC"/>
  <rect x="364" y="532" width="80" height="12" rx="6" fill="#CCCCCC"/>
  <rect x="824" y="490" width="40" height="20" rx="8" fill="#EEEEEE"/>

  <!-- Right Sidebar - Popular / Online -->
  <rect x="900" y="110" width="280" height="240" rx="12" fill="white" stroke="#CCCCCC"/>
  <rect x="920" y="130" width="140" height="18" rx="8" fill="#9CA3AF"/>
  <rect x="920" y="162" width="240" height="14" rx="8" fill="#CCCCCC"/>
  <rect x="920" y="186" width="220" height="14" rx="8" fill="#CCCCCC"/>
  <rect x="920" y="210" width="240" height="14" rx="8" fill="#CCCCCC"/>
  <rect x="920" y="234" width="200" height="14" rx="8" fill="#CCCCCC"/>
  <rect x="920" y="268" width="100" height="14" rx="8" fill="#9CA3AF"/>

  <rect x="900" y="370" width="280" height="180" rx="12" fill="white" stroke="#CCCCCC"/>
  <rect x="920" y="390" width="100" height="18" rx="8" fill="#9CA3AF"/>
  <rect x="920" y="424" width="240" height="30" rx="8" fill="#EEEEEE"/>
  <rect x="920" y="464" width="240" height="30" rx="8" fill="#EEEEEE"/>
  <rect x="920" y="504" width="240" height="30" rx="8" fill="#EEEEEE"/>

  <!-- Pagination -->
  <rect x="460" y="580" width="200" height="36" rx="10" fill="white" stroke="#CCCCCC"/>
</svg>
