<svg width="1200" height="800" viewBox="0 0 1200 800" fill="none" xmlns="http://www.w3.org/2000/svg">
  <!-- Top Navigation Bar -->
  <rect x="0" y="0" width="1200" height="56" fill="#DDDDDD"/>
  <rect x="24" y="16" width="120" height="24" rx="4" fill="#9CA3AF"/>
  <rect x="400" y="18" width="80" height="20" rx="4" fill="#CCCCCC"/>
  <rect x="500" y="18" width="80" height="20" rx="4" fill="#CCCCCC"/>
  <rect x="600" y="18" width="80" height="20" rx="4" fill="#CCCCCC"/>
  <rect x="700" y="18" width="80" height="20" rx="4" fill="#CCCCCC"/>
  <rect x="1040" y="12" width="120" height="32" rx="16" fill="white" stroke="#CCCCCC"/>
  <rect x="1060" y="22" width="80" height="12" rx="4" fill="#CCCCCC"/>

  <!-- Featured Article Hero -->
  <rect x="0" y="56" width="1200" height="340" fill="#EEEEEE"/>
  <!-- Overlay content (bottom-left) -->
  <rect x="0" y="256" width="1200" height="140" fill="#DDDDDD" opacity="0.6"/>
  <rect x="60" y="274" width="80" height="20" rx="10" fill="#9CA3AF"/>
  <rect x="60" y="306" width="500" height="32" rx="4" fill="#9CA3AF"/>
  <rect x="60" y="350" width="600" height="14" rx="4" fill="#CCCCCC"/>
  <!-- Author + Date -->
  <circle cx="80" cy="378" r="14" fill="white"/>
  <rect x="102" y="370" width="100" height="12" rx="4" fill="#CCCCCC"/>
  <rect x="220" y="370" width="80" height="12" rx="4" fill="#CCCCCC"/>

  <!-- Content Area -->
  <!-- Article Grid - 3 Columns -->
  <rect x="40" y="420" width="180" height="18" rx="4" fill="#9CA3AF"/>

  <!-- Article Card 1 -->
  <rect x="40" y="452" width="260" height="320" rx="10" fill="white" stroke="#CCCCCC"/>
  <rect x="48" y="460" width="244" height="150" rx="8" fill="#EEEEEE"/>
  <rect x="56" y="620" width="60" height="16" rx="8" fill="#EEEEEE"/>
  <rect x="56" y="646" width="220" height="18" rx="4" fill="#9CA3AF"/>
  <rect x="56" y="674" width="228" height="10" rx="4" fill="#CCCCCC"/>
  <rect x="56" y="692" width="200" height="10" rx="4" fill="#CCCCCC"/>
  <rect x="56" y="710" width="180" height="10" rx="4" fill="#CCCCCC"/>
  <!-- Author -->
  <circle cx="72" cy="746" r="10" fill="#EEEEEE" stroke="#CCCCCC"/>
  <rect x="90" y="740" width="80" height="10" rx="4" fill="#CCCCCC"/>
  <rect x="220" y="740" width="50" height="10" rx="4" fill="#CCCCCC"/>

  <!-- Article Card 2 -->
  <rect x="316" y="452" width="260" height="320" rx="10" fill="white" stroke="#CCCCCC"/>
  <rect x="324" y="460" width="244" height="150" rx="8" fill="#EEEEEE"/>
  <rect x="332" y="620" width="70" height="16" rx="8" fill="#EEEEEE"/>
  <rect x="332" y="646" width="200" height="18" rx="4" fill="#9CA3AF"/>
  <rect x="332" y="674" width="228" height="10" rx="4" fill="#CCCCCC"/>
  <rect x="332" y="692" width="210" height="10" rx="4" fill="#CCCCCC"/>
  <rect x="332" y="710" width="190" height="10" rx="4" fill="#CCCCCC"/>
  <circle cx="348" cy="746" r="10" fill="#EEEEEE" stroke="#CCCCCC"/>
  <rect x="366" y="740" width="90" height="10" rx="4" fill="#CCCCCC"/>
  <rect x="500" y="740" width="50" height="10" rx="4" fill="#CCCCCC"/>

  <!-- Article Card 3 -->
  <rect x="592" y="452" width="260" height="320" rx="10" fill="white" stroke="#CCCCCC"/>
  <rect x="600" y="460" width="244" height="150" rx="8" fill="#EEEEEE"/>
  <rect x="608" y="620" width="80" height="16" rx="8" fill="#EEEEEE"/>
  <rect x="608" y="646" width="230" height="18" rx="4" fill="#9CA3AF"/>
  <rect x="608" y="674" width="228" height="10" rx="4" fill="#CCCCCC"/>
  <rect x="608" y="692" width="200" height="10" rx="4" fill="#CCCCCC"/>
  <rect x="608" y="710" width="220" height="10" rx="4" fill="#CCCCCC"/>
  <circle cx="624" cy="746" r="10" fill="#EEEEEE" stroke="#CCCCCC"/>
  <rect x="642" y="740" width="70" height="10" rx="4" fill="#CCCCCC"/>
  <rect x="756" y="740" width="50" height="10" rx="4" fill="#CCCCCC"/>

  <!-- Sidebar -->
  <rect x="880" y="452" width="280" height="320" rx="10" fill="#EEEEEE"/>

  <!-- Categories -->
  <rect x="900" y="472" width="100" height="16" rx="4" fill="#9CA3AF"/>
  <rect x="900" y="500" width="240" height="28" rx="6" fill="white" stroke="#CCCCCC"/>
  <rect x="916" y="508" width="80" height="12" rx="4" fill="#CCCCCC"/>
  <rect x="900" y="536" width="240" height="28" rx="6" fill="white" stroke="#CCCCCC"/>
  <rect x="916" y="544" width="100" height="12" rx="4" fill="#CCCCCC"/>
  <rect x="900" y="572" width="240" height="28" rx="6" fill="white" stroke="#CCCCCC"/>
  <rect x="916" y="580" width="70" height="12" rx="4" fill="#CCCCCC"/>
  <rect x="900" y="608" width="240" height="28" rx="6" fill="white" stroke="#CCCCCC"/>
  <rect x="916" y="616" width="90" height="12" rx="4" fill="#CCCCCC"/>

  <!-- Popular Destinations -->
  <rect x="900" y="660" width="160" height="16" rx="4" fill="#9CA3AF"/>
  <!-- Destination chips -->
  <rect x="900" y="688" width="100" height="28" rx="14" fill="white" stroke="#CCCCCC"/>
  <rect x="916" y="696" width="68" height="12" rx="4" fill="#CCCCCC"/>
  <rect x="1012" y="688" width="80" height="28" rx="14" fill="white" stroke="#CCCCCC"/>
  <rect x="1024" y="696" width="56" height="12" rx="4" fill="#CCCCCC"/>
  <rect x="1104" y="688" width="60" height="28" rx="14" fill="white" stroke="#CCCCCC"/>
  <rect x="1114" y="696" width="40" height="12" rx="4" fill="#CCCCCC"/>
  <rect x="900" y="724" width="90" height="28" rx="14" fill="white" stroke="#CCCCCC"/>
  <rect x="916" y="732" width="58" height="12" rx="4" fill="#CCCCCC"/>
  <rect x="1002" y="724" width="110" height="28" rx="14" fill="white" stroke="#CCCCCC"/>
  <rect x="1018" y="732" width="78" height="12" rx="4" fill="#CCCCCC"/>
</svg>
